<svg xmlns="http://www.w3.org/2000/svg" viewBox="0 0 100 100" width="100" height="100">
  <defs>
    <linearGradient id="ss-grad" x1="0%" y1="0%" x2="100%" y2="100%">
      <stop offset="0%" stop-color="#C084FC" />
      <stop offset="50%" stop-color="#A855F7" />
      <stop offset="100%" stop-color="#7C3AED" />
    </linearGradient>
    <filter id="glow" x="-20%" y="-20%" width="140%" height="140%">
      <feGaussianBlur stdDeviation="4" result="blur" />
      <feComposite in="SourceGraphic" in2="blur" operator="over" />
    </filter>
  </defs>
  <rect width="100" height="100" rx="24" fill="#0B0714" stroke="#7C3AED" stroke-width="2" />
  <path d="M 28 32 C 28 24, 45 22, 52 28 C 58 33, 44 42, 36 47 C 28 52, 28 65, 38 72 C 48 78, 68 74, 68 64" fill="none" stroke="url(#ss-grad)" stroke-width="8" stroke-linecap="round" stroke-linejoin="round" filter="url(#glow)" />
  <path d="M 46 32 C 46 24, 63 22, 70 28 C 76 33, 62 42, 54 47 C 46 52, 46 65, 56 72 C 66 78, 86 74, 86 64" fill="none" stroke="url(#ss-grad)" stroke-width="8" stroke-linecap="round" stroke-linejoin="round" opacity="0.85" />
</svg>
